/* XPM */
static char *c9b12b6d5bbd4a0eb63669919fd35150K58nqyefiNlXwCVD[] = {
/* columns rows colors chars-per-pixel */
"32 32 7 1 ",
"  c None",
". c white",
"X c #181B2E",
"o c gray53",
"O c #0E6388",
"+ c #E49229",
"@ c #626262",
/* pixels */
"                                ",
"                                ",
"                                ",
"               .........        ",
"              ..XXXXXXX..       ",
"              .XXoooooXX.       ",
"              .XooXXXooX.       ",
"              .XoX...XoX..      ",
"              .XoX..XXoXX...    ",
"              .XOX...Xo+XXX.    ",
"              .XOoXXXoo+++X.    ",
"              .XOooooooXXXX.    ",
"              .XOOoooooX....    ",
"             ..XOOOooooX.       ",
"           ...XXOOOOOooX.       ",
"          ..XXX@@@@OOOOX.       ",
"        ...XX@@@@@@@OOOX.       ",
"       ..XXX@@@@@@@@oOOX.       ",
"     ...XX@@@@@@@@@@oooX.       ",
"   ...XXX@@@@@@@@@@oooXX.       ",
"   .XXXo@@@@@@@@ooooooX..       ",
"   .Xoooo@@@@ooooooooXX.        ",
"   .XXXXoooooooooooXXX..        ",
"   ....XXXXX@X@XXXXX...         ",
"      .....X+X+X.....           ",
"         .XX+XXXXX.             ",
"         .X++++X+X.             ",
"         .XXXXXXXX.             ",
"         ..........             ",
"                                ",
"                                ",
"                                "
};
