/* XPM */
static char *_8fe5b01ffbf4382b17010af35ae1a3fTqG6vSlgwbhOQ8UO[] = {
/* columns rows colors chars-per-pixel */
"27 35 6 1 ",
"  c white",
". c #181B2E",
"X c gray53",
"o c #0E6388",
"O c #E49229",
"+ c #626262",
/* pixels */
"                           ",
"                           ",
"                           ",
"                           ",
"             .......       ",
"            ..XXXXX..      ",
"            .XX...XX.      ",
"            .X.   .X.      ",
"            .X.  ..X..     ",
"            .o.   .XO...   ",
"            .oX...XXOOO.   ",
"            .oXXXXXX....   ",
"            .ooXXXXX.      ",
"            .oooXXXX.      ",
"           ..oooooXX.      ",
"         ...++++oooo.      ",
"        ..+++++++ooo.      ",
"      ...++++++++Xoo.      ",
"     ..++++++++++XXX.      ",
"   ...++++++++++XXX..      ",
" ...X++++++++XXXXXX.       ",
" .XXXX++++XXXXXXXX..       ",
" ....XXXXXXXXXXX...        ",
"    .....+.+.....          ",
"        .O.O.              ",
"       ..O.....            ",
"       .OOOO.O.            ",
"       ........            ",
"                           ",
"                           ",
"                           ",
"                           ",
"                           ",
"                           ",
"                           "
};
